{
    "accessors" : [
        {
            "bufferView" : 0, 
            "componentType" : 5123, 
            "count" : 12348, 
            "max" : [
                2274
            ], 
            "min" : [
                0
            ], 
            "type" : "SCALAR"
        }, 
        {
            "bufferView" : 1, 
            "componentType" : 5126, 
            "count" : 2275, 
            "max" : [
                0.8999999761581421, 
                0.18000000715255737, 
                0.8995376229286194
            ], 
            "min" : [
                -0.8999999761581421, 
                -0.18000000715255737, 
                -0.8995376229286194
            ], 
            "type" : "VEC3"
        }, 
        {
            "bufferView" : 2, 
            "componentType" : 5126, 
            "count" : 2275, 
            "max" : [
                1.0, 
                1.0, 
                0.999481201171875
            ], 
            "min" : [
                -1.0, 
                -1.0, 
                -0.999481201171875
            ], 
            "type" : "VEC3"
        }, 
        {
            "bufferView" : 3, 
            "componentType" : 5126, 
            "count" : 2275, 
            "max" : [
                1.0, 
                0.015786776319146156, 
                1.0, 
                1.0
            ], 
            "min" : [
                -1.0, 
                -0.015786845237016678, 
                -1.0, 
                1.0
            ], 
            "type" : "VEC4"
        }, 
        {
            "bufferView" : 4, 
            "componentType" : 5126, 
            "count" : 2275, 
            "max" : [
                1.0, 
                1.0
            ], 
            "min" : [
                0.0, 
                0.0
            ], 
            "type" : "VEC2"
        }, 
        {
            "bufferView" : 5, 
            "componentType" : 5126, 
            "count" : 2275, 
            "max" : [
                0.75, 
                0.7498714923858643
            ], 
            "min" : [
                0.25, 
                0.25012844800949097
            ], 
            "type" : "VEC2"
        }, 
        {
            "bufferView" : 6, 
            "componentType" : 5126, 
            "count" : 2275, 
            "max" : [
                0.75, 
                0.7498714923858643
            ], 
            "min" : [
                0.25, 
                0.25012844800949097
            ], 
            "type" : "VEC2"
        }, 
        {
            "bufferView" : 7, 
            "componentType" : 5123, 
            "count" : 12348, 
            "max" : [
                2274
            ], 
            "min" : [
                0
            ], 
            "type" : "SCALAR"
        }, 
        {
            "bufferView" : 8, 
            "componentType" : 5126, 
            "count" : 2275, 
            "max" : [
                1.008522391319275, 
                0.15609030425548553, 
                1.0080043077468872
            ], 
            "min" : [
                -1.008522391319275, 
                -0.15609030425548553, 
                -1.0080043077468872
            ], 
            "type" : "VEC3"
        }, 
        {
            "bufferView" : 9, 
            "componentType" : 5126, 
            "count" : 2275, 
            "max" : [
                0.999969482421875, 
                1.0, 
                0.999481201171875
            ], 
            "min" : [
                -0.999969482421875, 
                -1.0, 
                -0.999481201171875
            ], 
            "type" : "VEC3"
        }, 
        {
            "bufferView" : 10, 
            "componentType" : 5126, 
            "count" : 2275, 
            "max" : [
                1.0, 
                0.01598191447556019, 
                1.0, 
                1.0
            ], 
            "min" : [
                -1.0, 
                -0.015982016921043396, 
                -1.0, 
                1.0
            ], 
            "type" : "VEC4"
        }, 
        {
            "bufferView" : 11, 
            "componentType" : 5126, 
            "count" : 2275, 
            "max" : [
                1.0, 
                1.0
            ], 
            "min" : [
                0.0, 
                0.0
            ], 
            "type" : "VEC2"
        }, 
        {
            "bufferView" : 12, 
            "componentType" : 5126, 
            "count" : 250, 
            "max" : [
                8.3
            ], 
            "min" : [
                0.0
            ], 
            "type" : "SCALAR"
        }, 
        {
            "bufferView" : 13, 
            "componentType" : 5126, 
            "count" : 250, 
            "max" : [
                0.001315517001785338, 
                0.3629458546638489, 
                -0.5446534752845764
            ], 
            "min" : [
                0.001315517001785338, 
                0.0307907834649086, 
                -0.5446534752845764
            ], 
            "type" : "VEC3"
        }, 
        {
            "bufferView" : 14, 
            "componentType" : 5126, 
            "count" : 250, 
            "max" : [
                8.3
            ], 
            "min" : [
                0.0
            ], 
            "type" : "SCALAR"
        }, 
        {
            "bufferView" : 15, 
            "componentType" : 5126, 
            "count" : 250, 
            "max" : [
                0.7071068286895752, 
                0.16207996010780334, 
                0.7069634199142456, 
                0.7071067094802856
            ], 
            "min" : [
                0.01423927303403616, 
                -0.7069634199142456, 
                -0.16207996010780334, 
                0.01423939224332571
            ], 
            "type" : "VEC4"
        }, 
        {
            "bufferView" : 16, 
            "componentType" : 5126, 
            "count" : 250, 
            "max" : [
                8.3
            ], 
            "min" : [
                0.0
            ], 
            "type" : "SCALAR"
        }, 
        {
            "bufferView" : 17, 
            "componentType" : 5126, 
            "count" : 250, 
            "max" : [
                0.28802651166915894, 
                0.28642699122428894, 
                0.2888983190059662
            ], 
            "min" : [
                0.004847370088100433, 
                0.004847370088100433, 
                0.004847370088100433
            ], 
            "type" : "VEC3"
        }, 
        {
            "bufferView" : 18, 
            "componentType" : 5126, 
            "count" : 250, 
            "max" : [
                8.3
            ], 
            "min" : [
                0.0
            ], 
            "type" : "SCALAR"
        }, 
        {
            "bufferView" : 19, 
            "componentType" : 5126, 
            "count" : 250, 
            "max" : [
                0.001315517001785338, 
                0.3629458546638489, 
                -0.5446534752845764
            ], 
            "min" : [
                0.001315517001785338, 
                0.0307907834649086, 
                -0.5446534752845764
            ], 
            "type" : "VEC3"
        }, 
        {
            "bufferView" : 20, 
            "componentType" : 5126, 
            "count" : 250, 
            "max" : [
                8.3
            ], 
            "min" : [
                0.0
            ], 
            "type" : "SCALAR"
        }, 
        {
            "bufferView" : 21, 
            "componentType" : 5126, 
            "count" : 250, 
            "max" : [
                0.7071068286895752, 
                0.16207996010780334, 
                0.7069634199142456, 
                0.7071067094802856
            ], 
            "min" : [
                0.01423927303403616, 
                -0.7069634199142456, 
                -0.16207996010780334, 
                0.01423939224332571
            ], 
            "type" : "VEC4"
        }, 
        {
            "bufferView" : 22, 
            "componentType" : 5126, 
            "count" : 250, 
            "max" : [
                8.3
            ], 
            "min" : [
                0.0
            ], 
            "type" : "SCALAR"
        }, 
        {
            "bufferView" : 23, 
            "componentType" : 5126, 
            "count" : 250, 
            "max" : [
                0.28802651166915894, 
                0.28642699122428894, 
                0.2888983190059662
            ], 
            "min" : [
                0.004847370088100433, 
                0.004847370088100433, 
                0.004847370088100433
            ], 
            "type" : "VEC3"
        }
    ], 
    "animations" : [
        {
            "channels" : [
                {
                    "sampler" : 0, 
                    "target" : {
                        "node" : 1, 
                        "path" : "translation"
                    }
                }, 
                {
                    "sampler" : 1, 
                    "target" : {
                        "node" : 1, 
                        "path" : "rotation"
                    }
                }, 
                {
                    "sampler" : 2, 
                    "target" : {
                        "node" : 1, 
                        "path" : "scale"
                    }
                }, 
                {
                    "sampler" : 3, 
                    "target" : {
                        "node" : 2, 
                        "path" : "translation"
                    }
                }, 
                {
                    "sampler" : 4, 
                    "target" : {
                        "node" : 2, 
                        "path" : "rotation"
                    }
                }, 
                {
                    "sampler" : 5, 
                    "target" : {
                        "node" : 2, 
                        "path" : "scale"
                    }
                }
            ], 
            "samplers" : [
                {
                    "input" : 12, 
                    "interpolation" : "LINEAR", 
                    "output" : 13
                }, 
                {
                    "input" : 14, 
                    "interpolation" : "LINEAR", 
                    "output" : 15
                }, 
                {
                    "input" : 16, 
                    "interpolation" : "LINEAR", 
                    "output" : 17
                }, 
                {
                    "input" : 18, 
                    "interpolation" : "LINEAR", 
                    "output" : 19
                }, 
                {
                    "input" : 20, 
                    "interpolation" : "LINEAR", 
                    "output" : 21
                }, 
                {
                    "input" : 22, 
                    "interpolation" : "LINEAR", 
                    "output" : 23
                }
            ]
        }
    ], 
    "asset" : {
        "generator" : "Khronos Blender glTF 2.0 exporter", 
        "version" : "2.0"
    }, 
    "bufferViews" : [
        {
            "buffer" : 0, 
            "byteLength" : 24696, 
            "byteOffset" : 0, 
            "target" : 34963
        }, 
        {
            "buffer" : 0, 
            "byteLength" : 27300, 
            "byteOffset" : 24696, 
            "target" : 34962
        }, 
        {
            "buffer" : 0, 
            "byteLength" : 27300, 
            "byteOffset" : 51996, 
            "target" : 34962
        }, 
        {
            "buffer" : 0, 
            "byteLength" : 36400, 
            "byteOffset" : 79296, 
            "target" : 34962
        }, 
        {
            "buffer" : 0, 
            "byteLength" : 18200, 
            "byteOffset" : 115696, 
            "target" : 34962
        }, 
        {
            "buffer" : 0, 
            "byteLength" : 18200, 
            "byteOffset" : 133896, 
            "target" : 34962
        }, 
        {
            "buffer" : 0, 
            "byteLength" : 18200, 
            "byteOffset" : 152096, 
            "target" : 34962
        }, 
        {
            "buffer" : 0, 
            "byteLength" : 24696, 
            "byteOffset" : 170296, 
            "target" : 34963
        }, 
        {
            "buffer" : 0, 
            "byteLength" : 27300, 
            "byteOffset" : 194992, 
            "target" : 34962
        }, 
        {
            "buffer" : 0, 
            "byteLength" : 27300, 
            "byteOffset" : 222292, 
            "target" : 34962
        }, 
        {
            "buffer" : 0, 
            "byteLength" : 36400, 
            "byteOffset" : 249592, 
            "target" : 34962
        }, 
        {
            "buffer" : 0, 
            "byteLength" : 18200, 
            "byteOffset" : 285992, 
            "target" : 34962
        }, 
        {
            "buffer" : 0, 
            "byteLength" : 1000, 
            "byteOffset" : 304192
        }, 
        {
            "buffer" : 0, 
            "byteLength" : 3000, 
            "byteOffset" : 305192
        }, 
        {
            "buffer" : 0, 
            "byteLength" : 1000, 
            "byteOffset" : 308192
        }, 
        {
            "buffer" : 0, 
            "byteLength" : 4000, 
            "byteOffset" : 309192
        }, 
        {
            "buffer" : 0, 
            "byteLength" : 1000, 
            "byteOffset" : 313192
        }, 
        {
            "buffer" : 0, 
            "byteLength" : 3000, 
            "byteOffset" : 314192
        }, 
        {
            "buffer" : 0, 
            "byteLength" : 1000, 
            "byteOffset" : 317192
        }, 
        {
            "buffer" : 0, 
            "byteLength" : 3000, 
            "byteOffset" : 318192
        }, 
        {
            "buffer" : 0, 
            "byteLength" : 1000, 
            "byteOffset" : 321192
        }, 
        {
            "buffer" : 0, 
            "byteLength" : 4000, 
            "byteOffset" : 322192
        }, 
        {
            "buffer" : 0, 
            "byteLength" : 1000, 
            "byteOffset" : 326192
        }, 
        {
            "buffer" : 0, 
            "byteLength" : 3000, 
            "byteOffset" : 327192
        }
    ], 
    "buffers" : [
        {
            "byteLength" : 330192, 
            "uri" : "Bee2.bin"
        }
    ], 
    "materials" : [
        {
            "name" : "ANIMATION", 
            "pbrMetallicRoughness" : {
                "baseColorFactor" : [
                    0.800000011920929, 
                    0.800000011920929, 
                    0.800000011920929, 
                    1.0
                ], 
                "metallicFactor" : 0.0
            }
        }, 
        {
            "name" : "EE", 
            "pbrMetallicRoughness" : {
                "baseColorFactor" : [
                    0.7816000101208687, 
                    0.7872000334739688, 
                    0.7872000334739688, 
                    1.0
                ], 
                "metallicFactor" : 0.0
            }
        }, 
        {
            "name" : "GREEN", 
            "pbrMetallicRoughness" : {
                "baseColorFactor" : [
                    0.4705882619409003, 
                    0.5741176690774807, 
                    0.14117647619808427, 
                    1.0
                ], 
                "metallicFactor" : 0.0
            }
        }, 
        {
            "name" : "Path", 
            "pbrMetallicRoughness" : {
                "baseColorFactor" : [
                    0.7816000101208687, 
                    0.7872000334739688, 
                    0.7872000334739688, 
                    1.0
                ], 
                "metallicFactor" : 0.0
            }
        }
    ], 
    "meshes" : [
        {
            "name" : "Untitled.001", 
            "primitives" : [
                {
                    "attributes" : {
                        "NORMAL" : 2, 
                        "POSITION" : 1, 
                        "TANGENT" : 3, 
                        "TEXCOORD_0" : 4, 
                        "TEXCOORD_1" : 5, 
                        "TEXCOORD_2" : 6
                    }, 
                    "indices" : 0, 
                    "material" : 3
                }
            ]
        }, 
        {
            "name" : "Untitled", 
            "primitives" : [
                {
                    "attributes" : {
                        "NORMAL" : 9, 
                        "POSITION" : 8, 
                        "TANGENT" : 10, 
                        "TEXCOORD_0" : 11
                    }, 
                    "indices" : 7, 
                    "material" : 2
                }
            ]
        }
    ], 
    "nodes" : [
        {
            "name" : "Camera", 
            "rotation" : [
                0.483536034822464, 
                0.33687159419059753, 
                -0.20870360732078552, 
                0.7804827094078064
            ], 
            "translation" : [
                7.481131553649902, 
                5.34366512298584, 
                6.5076398849487305
            ]
        }, 
        {
            "mesh" : 1, 
            "name" : "Cylinder", 
            "rotation" : [
                0.7071067094802856, 
                0.000308805174427107, 
                -0.000308805174427107, 
                0.7071067094802856
            ], 
            "scale" : [
                0.004847370088100433, 
                0.004847370088100433, 
                0.004847370088100433
            ], 
            "translation" : [
                0.001315517001785338, 
                0.0307907834649086, 
                -0.5446534752845764
            ]
        }, 
        {
            "mesh" : 0, 
            "name" : "Cylinder_2", 
            "rotation" : [
                0.7071067094802856, 
                0.000308805174427107, 
                -0.000308805174427107, 
                0.7071067094802856
            ], 
            "scale" : [
                0.004847370088100433, 
                0.004847370088100433, 
                0.004847370088100433
            ], 
            "translation" : [
                0.001315517001785338, 
                0.0307907834649086, 
                -0.5446534752845764
            ]
        }, 
        {
            "name" : "Lamp", 
            "rotation" : [
                0.16907575726509094, 
                0.7558802962303162, 
                -0.27217137813568115, 
                0.570947527885437
            ], 
            "scale" : [
                1.0, 
                1.0, 
                0.9999999403953552
            ], 
            "translation" : [
                4.076245307922363, 
                5.903861999511719, 
                -1.0054539442062378
            ]
        }
    ], 
    "scene" : 0, 
    "scenes" : [
        {
            "name" : "Scene", 
            "nodes" : [
                1, 
                2, 
                3, 
                0
            ]
        }
    ]
}
